# xmcd CD database file
#
# Track frame offsets:
#	150
#	27120
#	43425
#
# Disc length: 936 seconds
#
# Revision: 0
# Processed by: cddbd v1.5PL3 Copyright (c) Steve Scherf et al.
# Submitted via: CDex 1.50beta9
#
DISCID=2103a603
DTITLE=VOICE - 泣きながらＫｉｓｓして
DYEAR=1993
DGENRE=J-POP
TTITLE0=泣きながらＫｉｓｓして
TTITLE1=そばに君がいる
TTITLE2=泣きながらＫｉｓｓして（カラオケ）
EXTD=YEAR: 1993
EXTT0=
EXTT1=
EXTT2=
PLAYORDER=
